<svg id="visual" viewBox="0 0 960 540" width="960" height="540" xmlns="http://www.w3.org/2000/svg" xmlns:xlink="http://www.w3.org/1999/xlink" version="1.1"><rect x="0" y="0" width="960" height="540" fill="#17181a"></rect><defs><linearGradient id="grad1_0" x1="43.8%" y1="100%" x2="100%" y2="0%"><stop offset="14.444444444444446%" stop-color="#17181a" stop-opacity="1"></stop><stop offset="85.55555555555554%" stop-color="#17181a" stop-opacity="1"></stop></linearGradient></defs><defs><linearGradient id="grad2_0" x1="0%" y1="100%" x2="56.3%" y2="0%"><stop offset="14.444444444444446%" stop-color="#17181a" stop-opacity="1"></stop><stop offset="85.55555555555554%" stop-color="#17181a" stop-opacity="1"></stop></linearGradient></defs><g transform="translate(960, 540)"><path d="M-272 0C-263.5 -43.5 -255 -87 -239.9 -138.5C-224.8 -190 -203.1 -249.4 -162 -280.6C-120.9 -311.8 -60.5 -314.9 0 -318L0 0Z" fill="#707ae6"></path></g><g transform="translate(0, 0)"><path d="M324 0C280.2 36.9 236.3 73.8 212.2 122.5C188 171.2 183.6 231.5 151.5 262.4C119.4 293.3 59.7 294.6 0 296L0 0Z" fill="#707ae6"></path></g></svg>