<svg id="visual" viewBox="0 0 960 540" width="960" height="540" xmlns="http://www.w3.org/2000/svg" xmlns:xlink="http://www.w3.org/1999/xlink" version="1.1"><rect x="0" y="0" width="960" height="540" fill="#17181a"></rect><defs><linearGradient id="grad1_0" x1="43.8%" y1="100%" x2="100%" y2="0%"><stop offset="14.444444444444446%" stop-color="#17181a" stop-opacity="1"></stop><stop offset="85.55555555555554%" stop-color="#17181a" stop-opacity="1"></stop></linearGradient></defs><defs><linearGradient id="grad2_0" x1="0%" y1="100%" x2="56.3%" y2="0%"><stop offset="14.444444444444446%" stop-color="#17181a" stop-opacity="1"></stop><stop offset="85.55555555555554%" stop-color="#17181a" stop-opacity="1"></stop></linearGradient></defs><g transform="translate(960, 540)"><path d="M-297 0C-266.6 -31.3 -236.2 -62.5 -216.2 -89.5C-196.2 -116.6 -186.5 -139.4 -173.2 -173.2C-160 -207.1 -143.1 -251.9 -113.7 -274.4C-84.2 -296.9 -42.1 -296.9 0 -297L0 0Z" fill="#5865f2"></path></g><g transform="translate(0, 0)"><path d="M297 0C275.9 35 254.8 70.1 233.7 96.8C212.7 123.5 191.6 141.9 173.9 173.9C156.3 206 142.1 251.6 113.7 274.4C85.2 297.2 42.6 297.1 0 297L0 0Z" fill="#5865f2"></path></g></svg>