<svg id="visual" viewBox="0 0 900 600" width="900" height="600" xmlns="http://www.w3.org/2000/svg" xmlns:xlink="http://www.w3.org/1999/xlink" version="1.1"><path d="M0 193L37.5 203C75 213 150 233 225 246C300 259 375 265 450 266C525 267 600 263 675 238C750 213 825 167 862.5 144L900 121L900 0L862.5 0C825 0 750 0 675 0C600 0 525 0 450 0C375 0 300 0 225 0C150 0 75 0 37.5 0L0 0Z" fill="#6198ff"></path><path d="M0 253L37.5 268C75 283 150 313 225 332C300 351 375 359 450 362C525 365 600 363 675 337C750 311 825 261 862.5 236L900 211L900 119L862.5 142C825 165 750 211 675 236C600 261 525 265 450 264C375 263 300 257 225 244C150 231 75 211 37.5 201L0 191Z" fill="#2d77ff"></path><path d="M0 487L37.5 483C75 479 150 471 225 473C300 475 375 487 450 490C525 493 600 487 675 486C750 485 825 489 862.5 491L900 493L900 209L862.5 234C825 259 750 309 675 335C600 361 525 363 450 360C375 357 300 349 225 330C150 311 75 281 37.5 266L0 251Z" fill="#005de8"></path><path d="M0 601L37.5 601C75 601 150 601 225 601C300 601 375 601 450 601C525 601 600 601 675 601C750 601 825 601 862.5 601L900 601L900 491L862.5 489C825 487 750 483 675 484C600 485 525 491 450 488C375 485 300 473 225 471C150 469 75 477 37.5 481L0 485Z" fill="#004cbb"></path></svg>