<svg id="visual" viewBox="0 0 960 540" width="960" height="540" xmlns="http://www.w3.org/2000/svg" xmlns:xlink="http://www.w3.org/1999/xlink" version="1.1"><path d="M700 540L706.3 522C712.7 504 725.3 468 742.8 432C760.3 396 782.7 360 785.8 324C789 288 773 252 755.5 216C738 180 719 144 707.8 108C696.7 72 693.3 36 691.7 18L690 0L960 0L960 18C960 36 960 72 960 108C960 144 960 180 960 216C960 252 960 288 960 324C960 360 960 396 960 432C960 468 960 504 960 522L960 540Z" fill="#0066ff"></path><path d="M383 540L400.7 522C418.3 504 453.7 468 461.7 432C469.7 396 450.3 360 459.8 324C469.3 288 507.7 252 499.7 216C491.7 180 437.3 144 437.3 108C437.3 72 491.7 36 518.8 18L546 0L691 0L692.7 18C694.3 36 697.7 72 708.8 108C720 144 739 180 756.5 216C774 252 790 288 786.8 324C783.7 360 761.3 396 743.8 432C726.3 468 713.7 504 707.3 522L701 540Z" fill="#004faf"></path><path d="M297 540L298.5 522C300 504 303 468 303 432C303 396 300 360 322.5 324C345 288 393 252 381.7 216C370.3 180 299.7 144 286.8 108C274 72 319 36 341.5 18L364 0L547 0L519.8 18C492.7 36 438.3 72 438.3 108C438.3 144 492.7 180 500.7 216C508.7 252 470.3 288 460.8 324C451.3 360 470.7 396 462.7 432C454.7 468 419.3 504 401.7 522L384 540Z" fill="#113461"></path><path d="M0 540L0 522C0 504 0 468 0 432C0 396 0 360 0 324C0 288 0 252 0 216C0 180 0 144 0 108C0 72 0 36 0 18L0 0L365 0L342.5 18C320 36 275 72 287.8 108C300.7 144 371.3 180 382.7 216C394 252 346 288 323.5 324C301 360 304 396 304 432C304 468 301 504 299.5 522L298 540Z" fill="#17181a"></path></svg>