<svg id="visual" viewBox="0 0 960 540" width="960" height="540" xmlns="http://www.w3.org/2000/svg" xmlns:xlink="http://www.w3.org/1999/xlink" version="1.1"><path d="M565 540L589.3 527.2C613.7 514.3 662.3 488.7 686.2 463C710 437.3 709 411.7 694 386C679 360.3 650 334.7 646.2 308.8C642.3 283 663.7 257 655.5 231.2C647.3 205.3 609.7 179.7 604.2 154C598.7 128.3 625.3 102.7 636.8 77C648.3 51.3 644.7 25.7 642.8 12.8L641 0L960 0L960 12.8C960 25.7 960 51.3 960 77C960 102.7 960 128.3 960 154C960 179.7 960 205.3 960 231.2C960 257 960 283 960 308.8C960 334.7 960 360.3 960 386C960 411.7 960 437.3 960 463C960 488.7 960 514.3 960 527.2L960 540Z" fill="#5865f2"></path><path d="M735 540L729.7 527.2C724.3 514.3 713.7 488.7 700.8 463C688 437.3 673 411.7 683.5 386C694 360.3 730 334.7 741.5 308.8C753 283 740 257 738.7 231.2C737.3 205.3 747.7 179.7 752.7 154C757.7 128.3 757.3 102.7 746.8 77C736.3 51.3 715.7 25.7 705.3 12.8L695 0L960 0L960 12.8C960 25.7 960 51.3 960 77C960 102.7 960 128.3 960 154C960 179.7 960 205.3 960 231.2C960 257 960 283 960 308.8C960 334.7 960 360.3 960 386C960 411.7 960 437.3 960 463C960 488.7 960 514.3 960 527.2L960 540Z" fill="#8985f2"></path><path d="M734 540L732 527.2C730 514.3 726 488.7 731 463C736 437.3 750 411.7 765.7 386C781.3 360.3 798.7 334.7 804.5 308.8C810.3 283 804.7 257 791.8 231.2C779 205.3 759 179.7 759 154C759 128.3 779 102.7 789.2 77C799.3 51.3 799.7 25.7 799.8 12.8L800 0L960 0L960 12.8C960 25.7 960 51.3 960 77C960 102.7 960 128.3 960 154C960 179.7 960 205.3 960 231.2C960 257 960 283 960 308.8C960 334.7 960 360.3 960 386C960 411.7 960 437.3 960 463C960 488.7 960 514.3 960 527.2L960 540Z" fill="#afa7f2"></path><path d="M863 540L854.5 527.2C846 514.3 829 488.7 830.2 463C831.3 437.3 850.7 411.7 847.8 386C845 360.3 820 334.7 813.7 308.8C807.3 283 819.7 257 824.2 231.2C828.7 205.3 825.3 179.7 816.5 154C807.7 128.3 793.3 102.7 800.7 77C808 51.3 837 25.7 851.5 12.8L866 0L960 0L960 12.8C960 25.7 960 51.3 960 77C960 102.7 960 128.3 960 154C960 179.7 960 205.3 960 231.2C960 257 960 283 960 308.8C960 334.7 960 360.3 960 386C960 411.7 960 437.3 960 463C960 488.7 960 514.3 960 527.2L960 540Z" fill="#d0caf0"></path><path d="M881 540L885.8 527.2C890.7 514.3 900.3 488.7 895.3 463C890.3 437.3 870.7 411.7 867.5 386C864.3 360.3 877.7 334.7 878.2 308.8C878.7 283 866.3 257 869.5 231.2C872.7 205.3 891.3 179.7 898.5 154C905.7 128.3 901.3 102.7 899.2 77C897 51.3 897 25.7 897 12.8L897 0L960 0L960 12.8C960 25.7 960 51.3 960 77C960 102.7 960 128.3 960 154C960 179.7 960 205.3 960 231.2C960 257 960 283 960 308.8C960 334.7 960 360.3 960 386C960 411.7 960 437.3 960 463C960 488.7 960 514.3 960 527.2L960 540Z" fill="#eeeeee"></path></svg>