<svg id="visual" viewBox="0 0 960 540" width="960" height="540" xmlns="http://www.w3.org/2000/svg" xmlns:xlink="http://www.w3.org/1999/xlink" version="1.1"><rect x="0" y="0" width="960" height="540" fill="#17181a"></rect><path d="M467 540L492 540L492 480L460 480L460 420L509 420L509 360L470 360L470 300L482 300L482 240L441 240L441 180L495 180L495 120L467 120L467 60L457 60L457 0L960 0L960 60L960 60L960 120L960 120L960 180L960 180L960 240L960 240L960 300L960 300L960 360L960 360L960 420L960 420L960 480L960 480L960 540L960 540Z" fill="#6198ff"></path><path d="M602 540L605 540L605 480L549 480L549 420L540 420L540 360L597 360L597 300L589 300L589 240L561 240L561 180L588 180L588 120L581 120L581 60L613 60L613 0L960 0L960 60L960 60L960 120L960 120L960 180L960 180L960 240L960 240L960 300L960 300L960 360L960 360L960 420L960 420L960 480L960 480L960 540L960 540Z" fill="#0066ff"></path><path d="M729 540L728 540L728 480L708 480L708 420L769 420L769 360L733 360L733 300L711 300L711 240L732 240L732 180L782 180L782 120L732 120L732 60L741 60L741 0L960 0L960 60L960 60L960 120L960 120L960 180L960 180L960 240L960 240L960 300L960 300L960 360L960 360L960 420L960 420L960 480L960 480L960 540L960 540Z" fill="#004cbb"></path></svg>