<svg id="visual" viewBox="0 0 600 900" width="600" height="900" xmlns="http://www.w3.org/2000/svg" xmlns:xlink="http://www.w3.org/1999/xlink" version="1.1"><rect x="0" y="0" width="600" height="900" fill="#17181a"></rect><path d="M0 666L14.3 656.3C28.7 646.7 57.3 627.3 85.8 617.7C114.3 608 142.7 608 171.2 601.2C199.7 594.3 228.3 580.7 257 582C285.7 583.3 314.3 599.7 343 612.5C371.7 625.3 400.3 634.7 428.8 625.8C457.3 617 485.7 590 514.2 583.8C542.7 577.7 571.3 592.3 585.7 599.7L600 607L600 901L585.7 901C571.3 901 542.7 901 514.2 901C485.7 901 457.3 901 428.8 901C400.3 901 371.7 901 343 901C314.3 901 285.7 901 257 901C228.3 901 199.7 901 171.2 901C142.7 901 114.3 901 85.8 901C57.3 901 28.7 901 14.3 901L0 901Z" fill="#5865f2"></path><path d="M0 599L14.3 598.7C28.7 598.3 57.3 597.7 85.8 606.5C114.3 615.3 142.7 633.7 171.2 653C199.7 672.3 228.3 692.7 257 693.8C285.7 695 314.3 677 343 663.7C371.7 650.3 400.3 641.7 428.8 646.3C457.3 651 485.7 669 514.2 683.2C542.7 697.3 571.3 707.7 585.7 712.8L600 718L600 901L585.7 901C571.3 901 542.7 901 514.2 901C485.7 901 457.3 901 428.8 901C400.3 901 371.7 901 343 901C314.3 901 285.7 901 257 901C228.3 901 199.7 901 171.2 901C142.7 901 114.3 901 85.8 901C57.3 901 28.7 901 14.3 901L0 901Z" fill="#8985f2"></path><path d="M0 752L14.3 737.8C28.7 723.7 57.3 695.3 85.8 693.8C114.3 692.3 142.7 717.7 171.2 719.5C199.7 721.3 228.3 699.7 257 685.7C285.7 671.7 314.3 665.3 343 669.8C371.7 674.3 400.3 689.7 428.8 691.7C457.3 693.7 485.7 682.3 514.2 689.2C542.7 696 571.3 721 585.7 733.5L600 746L600 901L585.7 901C571.3 901 542.7 901 514.2 901C485.7 901 457.3 901 428.8 901C400.3 901 371.7 901 343 901C314.3 901 285.7 901 257 901C228.3 901 199.7 901 171.2 901C142.7 901 114.3 901 85.8 901C57.3 901 28.7 901 14.3 901L0 901Z" fill="#afa7f2"></path><path d="M0 774L14.3 772.7C28.7 771.3 57.3 768.7 85.8 774.3C114.3 780 142.7 794 171.2 798.3C199.7 802.7 228.3 797.3 257 788.8C285.7 780.3 314.3 768.7 343 760.2C371.7 751.7 400.3 746.3 428.8 750C457.3 753.7 485.7 766.3 514.2 776C542.7 785.7 571.3 792.3 585.7 795.7L600 799L600 901L585.7 901C571.3 901 542.7 901 514.2 901C485.7 901 457.3 901 428.8 901C400.3 901 371.7 901 343 901C314.3 901 285.7 901 257 901C228.3 901 199.7 901 171.2 901C142.7 901 114.3 901 85.8 901C57.3 901 28.7 901 14.3 901L0 901Z" fill="#d0caf0"></path><path d="M0 835L14.3 835.2C28.7 835.3 57.3 835.7 85.8 839.2C114.3 842.7 142.7 849.3 171.2 848.8C199.7 848.3 228.3 840.7 257 833.7C285.7 826.7 314.3 820.3 343 814.3C371.7 808.3 400.3 802.7 428.8 807.8C457.3 813 485.7 829 514.2 836.5C542.7 844 571.3 843 585.7 842.5L600 842L600 901L585.7 901C571.3 901 542.7 901 514.2 901C485.7 901 457.3 901 428.8 901C400.3 901 371.7 901 343 901C314.3 901 285.7 901 257 901C228.3 901 199.7 901 171.2 901C142.7 901 114.3 901 85.8 901C57.3 901 28.7 901 14.3 901L0 901Z" fill="#eeeeee"></path></svg>